<?xml version="1.0" encoding="UTF-8"?><!DOCTYPE svg PUBLIC "-//W3C//DTD SVG 1.1//EN" "http://www.w3.org/Graphics/SVG/1.1/DTD/svg11.dtd"><svg xmlns="http://www.w3.org/2000/svg" xmlns:xlink="http://www.w3.org/1999/xlink"><defs><clipPath id="clip0"><path fill="#fff" d="M0 0h24v24H0z"/></clipPath></defs><symbol id="close" viewBox="0 0 24 24"><g clip-path="url(#clip0)"><path d="M13.326 12l10.4-10.399A.937.937 0 1022.4.275L12 10.675 1.6.275A.937.937 0 10.275 1.601l10.4 10.4-10.4 10.4A.938.938 0 101.6 23.725L12 13.326l10.4 10.4a.935.935 0 001.325 0 .937.937 0 000-1.326L13.325 12z" fill="#fff"/></g></symbol><symbol id="file"><path d="M14.003 2.12h-1.35V.771a.773.773 0 00-.77-.771H2.05a.773.773 0 00-.77.771v12.337c0 .425.346.771.77.771H3.4v1.35c0 .424.347.771.77.771h6.555c.424 0 1.024-.238 1.332-.528l2.154-2.028c.31-.29.562-.875.562-1.3V2.893a.773.773 0 00-.77-.772zm-10.602.772v10.41H2.05a.195.195 0 01-.192-.194V.771c0-.104.088-.193.192-.193h9.832c.104 0 .193.089.193.193v1.35H4.172a.773.773 0 00-.771.77zm10.415 10.131l-2.154 2.027a1.027 1.027 0 01-.165.121v-1.773a.48.48 0 01.482-.482h1.929a.812.812 0 01-.092.107zm.38-.878c0 .057-.01.123-.027.192h-2.19a1.062 1.062 0 00-1.06 1.06v2.001a1.01 1.01 0 01-.193.024H4.172a.195.195 0 01-.193-.193V2.892c0-.105.088-.193.193-.193h9.831c.105 0 .193.088.193.193v9.253z" fill="#0067A6"/><path d="M11.882 4.82h-5.59a.289.289 0 100 .578h5.59a.29.29 0 100-.579zm0 3.855h-5.59a.289.289 0 100 .578h5.59a.29.29 0 100-.578zm-2.506 1.927H6.292a.29.29 0 100 .579h3.084a.289.289 0 000-.579zm2.506-3.855h-5.59a.289.289 0 100 .578h5.59a.29.29 0 100-.578z" fill="#0067A6"/></symbol><symbol id="star"><path d="M19.284 7.276l-5.95-.865-2.66-5.393a.753.753 0 00-1.345 0L6.667 6.411l-5.951.865a.749.749 0 00-.415 1.28l4.306 4.197L3.59 18.68a.749.749 0 001.088.79L10 16.672l5.322 2.798a.749.749 0 001.087-.79l-1.017-5.927L19.7 8.555a.749.749 0 00.218-.428.747.747 0 00-.633-.851zm-5.702 4.886l.846 4.93L10 14.765l-4.427 2.328.846-4.93-3.581-3.491 4.95-.72 2.213-4.483 2.212 4.483 4.95.72-3.581 3.49z" fill="#505968"/></symbol></svg>